<svg width="96" height="100" viewBox="0 0 96 100" fill="none" xmlns="http://www.w3.org/2000/svg">
<path d="M82.375 45.5V18.25C82.375 13.2542 78.2875 9.16671 73.2917 9.16671H68.75V4.62504C68.75 2.12712 66.7062 0.083374 64.2083 0.083374C61.7104 0.083374 59.6667 2.12712 59.6667 4.62504V9.16671H23.3333V4.62504C23.3333 2.12712 21.2896 0.083374 18.7917 0.083374C16.2937 0.083374 14.25 2.12712 14.25 4.62504V9.16671H9.70833C4.7125 9.16671 0.625 13.2542 0.625 18.25V81.8334C0.625 86.8292 4.7125 90.9167 9.70833 90.9167H41.5V81.8334H9.70833V36.4167H73.2917V45.5H82.375ZM55.7154 81.8334C53.2175 81.8334 51.5825 84.3767 52.6271 86.6475C54.4192 90.6274 57.3228 94.0047 60.9888 96.3735C64.6547 98.7423 68.927 100.002 73.2917 100C85.8267 100 96 89.8267 96 77.2917C96 64.7567 85.8267 54.5834 73.2917 54.5834C67.115 54.5834 61.4833 57.0813 57.3958 61.078V57.9896C57.3958 56.1275 55.8517 54.5834 53.9896 54.5834C52.1275 54.5834 50.5833 56.1275 50.5833 57.9896V68.2084C50.5833 70.7063 52.6271 72.75 55.125 72.75H65.3438C67.2058 72.75 68.75 71.2059 68.75 69.3438C68.75 67.4817 67.2058 65.9375 65.3438 65.9375H62.1646C65.0258 63.1217 68.9771 61.3959 73.2917 61.3959C82.0571 61.3959 89.1875 68.5263 89.1875 77.2917C89.1875 86.0571 82.0571 93.1875 73.2917 93.1875C66.8425 93.1875 61.3017 89.3271 58.8037 83.8317C58.5365 83.2362 58.1028 82.7308 57.5549 82.3762C57.0069 82.0216 56.3681 81.8331 55.7154 81.8334Z" fill="#FF4F5A"/>
</svg>
