<svg width="90" height="91" viewBox="0 0 90 91" fill="none" xmlns="http://www.w3.org/2000/svg">
<path d="M87.9167 13.3778L76.7139 2.17502C75.751 1.25692 74.4716 0.744751 73.1411 0.744751C71.8107 0.744751 70.5313 1.25692 69.5683 2.17502L59.6069 12.1667H6.16667C4.56064 12.1667 3.02038 12.8047 1.88475 13.9403C0.749108 15.076 0.111115 16.6162 0.111115 18.2222V84.8334C0.111115 86.4394 0.749108 87.9796 1.88475 89.1153C3.02038 90.2509 4.56064 90.8889 6.16667 90.8889H72.7778C74.3838 90.8889 75.9241 90.2509 77.0597 89.1153C78.1953 87.9796 78.8333 86.4394 78.8333 84.8334V29.6067L87.9167 20.5234C88.8633 19.5753 89.395 18.2903 89.395 16.9506C89.395 15.6108 88.8633 14.3258 87.9167 13.3778ZM45.0131 54.9492L32.3267 57.765L35.3544 45.1997L64.2697 16.2239L74.0494 26.0036L45.0131 54.9492ZM77.3194 22.552L67.5397 12.7722L73.1411 7.17085L82.9208 16.9506L77.3194 22.552Z" fill="#FF4F5A"/>
</svg>
