<svg width="91" height="87" viewBox="0 0 91 87" fill="none" xmlns="http://www.w3.org/2000/svg">
<path d="M72.75 40.9584C79.5171 40.9584 85.7846 43.093 90.9167 46.6809V27.3334C90.9167 22.2921 86.8746 18.25 81.8333 18.25H63.6667V9.16671C63.6667 4.12546 59.6246 0.083374 54.5833 0.083374H36.4167C31.3754 0.083374 27.3333 4.12546 27.3333 9.16671V18.25H9.16667C4.12542 18.25 0.128753 22.2921 0.128753 27.3334L0.0833359 77.2917C0.0833359 82.333 4.12542 86.375 9.16667 86.375H44.0467C41.7424 81.5314 40.7021 76.1833 41.0226 70.8291C41.3431 65.4749 43.014 60.289 45.8796 55.7548C48.7452 51.2207 52.7121 47.4859 57.4106 44.8986C62.1091 42.3113 67.3862 40.9558 72.75 40.9584ZM36.4167 9.16671H54.5833V18.25H36.4167V9.16671Z" fill="#FF4F5A"/>
</svg>
