<svg width="29" height="29" viewBox="0 0 29 29" fill="none" xmlns="http://www.w3.org/2000/svg">
<path d="M27.1875 7.25001C27.1875 6.2886 26.8056 5.36657 26.1258 4.68675C25.4459 4.00693 24.5239 3.62501 23.5625 3.62501H22.6562V2.74425C22.6562 2.25657 22.2813 1.838 21.7936 1.81364C21.6711 1.80774 21.5486 1.82677 21.4337 1.86959C21.3187 1.91242 21.2136 1.97813 21.1248 2.06276C21.036 2.14739 20.9653 2.24916 20.917 2.36193C20.8687 2.47469 20.8438 2.59608 20.8438 2.71876V3.62501H8.15625V2.74425C8.15625 2.25657 7.78129 1.838 7.29361 1.81364C7.17108 1.80774 7.04862 1.82677 6.93366 1.86959C6.8187 1.91242 6.71364 1.97813 6.62482 2.06276C6.53601 2.14739 6.46531 2.24916 6.41699 2.36193C6.36868 2.47469 6.34376 2.59608 6.34375 2.71876V3.62501H5.4375C4.47609 3.62501 3.55406 4.00693 2.87424 4.68675C2.19442 5.36657 1.8125 6.2886 1.8125 7.25001V7.9297C1.8125 7.98978 1.83637 8.04741 1.87886 8.0899C1.92135 8.13239 1.97897 8.15626 2.03906 8.15626H26.9609C27.021 8.15626 27.0787 8.13239 27.1211 8.0899C27.1636 8.04741 27.1875 7.98978 27.1875 7.9297V7.25001ZM1.8125 23.5625C1.8125 24.5239 2.19442 25.4459 2.87424 26.1258C3.55406 26.8056 4.47609 27.1875 5.4375 27.1875H23.5625C24.5239 27.1875 25.4459 26.8056 26.1258 26.1258C26.8056 25.4459 27.1875 24.5239 27.1875 23.5625V10.1387C27.1875 10.0936 27.1696 10.0504 27.1377 10.0185C27.1059 9.98666 27.0626 9.96876 27.0176 9.96876H1.98242C1.93736 9.96876 1.89414 9.98666 1.86227 10.0185C1.8304 10.0504 1.8125 10.0936 1.8125 10.1387V23.5625ZM21.2969 11.7813C21.5657 11.7813 21.8286 11.861 22.0521 12.0104C22.2757 12.1597 22.4499 12.372 22.5528 12.6204C22.6557 12.8688 22.6826 13.1421 22.6301 13.4058C22.5777 13.6695 22.4482 13.9117 22.2581 14.1019C22.068 14.292 21.8258 14.4214 21.5621 14.4739C21.2984 14.5263 21.0251 14.4994 20.7767 14.3965C20.5283 14.2936 20.316 14.1194 20.1666 13.8959C20.0172 13.6723 19.9375 13.4095 19.9375 13.1406C19.9375 12.7801 20.0807 12.4343 20.3357 12.1794C20.5906 11.9245 20.9363 11.7813 21.2969 11.7813ZM21.2969 16.3125C21.5657 16.3125 21.8286 16.3922 22.0521 16.5416C22.2757 16.691 22.4499 16.9033 22.5528 17.1517C22.6557 17.4001 22.6826 17.6734 22.6301 17.9371C22.5777 18.2008 22.4482 18.443 22.2581 18.6331C22.068 18.8232 21.8258 18.9527 21.5621 19.0051C21.2984 19.0576 21.0251 19.0307 20.7767 18.9278C20.5283 18.8249 20.316 18.6507 20.1666 18.4271C20.0172 18.2036 19.9375 17.9407 19.9375 17.6719C19.9375 17.3114 20.0807 16.9656 20.3357 16.7107C20.5906 16.4557 20.9363 16.3125 21.2969 16.3125ZM16.7656 11.7813C17.0345 11.7813 17.2973 11.861 17.5209 12.0104C17.7444 12.1597 17.9186 12.372 18.0215 12.6204C18.1244 12.8688 18.1513 13.1421 18.0989 13.4058C18.0464 13.6695 17.917 13.9117 17.7268 14.1019C17.5367 14.292 17.2945 14.4214 17.0308 14.4739C16.7671 14.5263 16.4938 14.4994 16.2454 14.3965C15.997 14.2936 15.7847 14.1194 15.6353 13.8959C15.486 13.6723 15.4062 13.4095 15.4062 13.1406C15.4062 12.7801 15.5495 12.4343 15.8044 12.1794C16.0593 11.9245 16.4051 11.7813 16.7656 11.7813ZM16.7656 16.3125C17.0345 16.3125 17.2973 16.3922 17.5209 16.5416C17.7444 16.691 17.9186 16.9033 18.0215 17.1517C18.1244 17.4001 18.1513 17.6734 18.0989 17.9371C18.0464 18.2008 17.917 18.443 17.7268 18.6331C17.5367 18.8232 17.2945 18.9527 17.0308 19.0051C16.7671 19.0576 16.4938 19.0307 16.2454 18.9278C15.997 18.8249 15.7847 18.6507 15.6353 18.4271C15.486 18.2036 15.4062 17.9407 15.4062 17.6719C15.4062 17.3114 15.5495 16.9656 15.8044 16.7107C16.0593 16.4557 16.4051 16.3125 16.7656 16.3125ZM16.7656 20.8438C17.0345 20.8438 17.2973 20.9235 17.5209 21.0729C17.7444 21.2222 17.9186 21.4345 18.0215 21.6829C18.1244 21.9313 18.1513 22.2046 18.0989 22.4683C18.0464 22.732 17.917 22.9742 17.7268 23.1644C17.5367 23.3545 17.2945 23.4839 17.0308 23.5364C16.7671 23.5888 16.4938 23.5619 16.2454 23.459C15.997 23.3561 15.7847 23.1819 15.6353 22.9584C15.486 22.7348 15.4062 22.472 15.4062 22.2031C15.4062 21.8426 15.5495 21.4968 15.8044 21.2419C16.0593 20.987 16.4051 20.8438 16.7656 20.8438ZM12.2344 16.3125C12.5032 16.3125 12.7661 16.3922 12.9896 16.5416C13.2132 16.691 13.3874 16.9033 13.4903 17.1517C13.5932 17.4001 13.6201 17.6734 13.5676 17.9371C13.5152 18.2008 13.3857 18.443 13.1956 18.6331C13.0055 18.8232 12.7633 18.9527 12.4996 19.0051C12.2359 19.0576 11.9626 19.0307 11.7142 18.9278C11.4658 18.8249 11.2535 18.6507 11.1041 18.4271C10.9547 18.2036 10.875 17.9407 10.875 17.6719C10.875 17.3114 11.0182 16.9656 11.2732 16.7107C11.5281 16.4557 11.8738 16.3125 12.2344 16.3125ZM12.2344 20.8438C12.5032 20.8438 12.7661 20.9235 12.9896 21.0729C13.2132 21.2222 13.3874 21.4345 13.4903 21.6829C13.5932 21.9313 13.6201 22.2046 13.5676 22.4683C13.5152 22.732 13.3857 22.9742 13.1956 23.1644C13.0055 23.3545 12.7633 23.4839 12.4996 23.5364C12.2359 23.5888 11.9626 23.5619 11.7142 23.459C11.4658 23.3561 11.2535 23.1819 11.1041 22.9584C10.9547 22.7348 10.875 22.472 10.875 22.2031C10.875 21.8426 11.0182 21.4968 11.2732 21.2419C11.5281 20.987 11.8738 20.8438 12.2344 20.8438ZM7.70312 16.3125C7.97198 16.3125 8.2348 16.3922 8.45835 16.5416C8.6819 16.691 8.85614 16.9033 8.95902 17.1517C9.06191 17.4001 9.08883 17.6734 9.03638 17.9371C8.98393 18.2008 8.85446 18.443 8.66435 18.6331C8.47424 18.8232 8.23202 18.9527 7.96833 19.0051C7.70463 19.0576 7.43131 19.0307 7.18291 18.9278C6.93452 18.8249 6.72222 18.6507 6.57285 18.4271C6.42348 18.2036 6.34375 17.9407 6.34375 17.6719C6.34375 17.3114 6.48697 16.9656 6.7419 16.7107C6.99683 16.4557 7.3426 16.3125 7.70312 16.3125ZM7.70312 20.8438C7.97198 20.8438 8.2348 20.9235 8.45835 21.0729C8.6819 21.2222 8.85614 21.4345 8.95902 21.6829C9.06191 21.9313 9.08883 22.2046 9.03638 22.4683C8.98393 22.732 8.85446 22.9742 8.66435 23.1644C8.47424 23.3545 8.23202 23.4839 7.96833 23.5364C7.70463 23.5888 7.43131 23.5619 7.18291 23.459C6.93452 23.3561 6.72222 23.1819 6.57285 22.9584C6.42348 22.7348 6.34375 22.472 6.34375 22.2031C6.34375 21.8426 6.48697 21.4968 6.7419 21.2419C6.99683 20.987 7.3426 20.8438 7.70312 20.8438Z" fill="#6B6B6B"/>
</svg>
