<svg width="29" height="29" viewBox="0 0 29 29" fill="none" xmlns="http://www.w3.org/2000/svg">
<path d="M27.1875 7.25001C27.1875 6.2886 26.8056 5.36657 26.1258 4.68675C25.4459 4.00693 24.5239 3.62501 23.5625 3.62501H22.6562V2.74425C22.6562 2.25657 22.2813 1.838 21.7936 1.81364C21.6711 1.80774 21.5486 1.82677 21.4337 1.86959C21.3187 1.91242 21.2136 1.97813 21.1248 2.06276C21.036 2.14739 20.9653 2.24916 20.917 2.36193C20.8687 2.47469 20.8438 2.59608 20.8438 2.71876V3.62501H8.15625V2.74425C8.15625 2.25657 7.78129 1.838 7.29361 1.81364C7.17108 1.80774 7.04862 1.82677 6.93366 1.86959C6.8187 1.91242 6.71364 1.97813 6.62482 2.06276C6.53601 2.14739 6.46531 2.24916 6.41699 2.36193C6.36868 2.47469 6.34376 2.59608 6.34375 2.71876V3.62501H5.4375C4.47609 3.62501 3.55406 4.00693 2.87424 4.68675C2.19442 5.36657 1.8125 6.2886 1.8125 7.25001V7.9297C1.8125 7.98978 1.83637 8.04741 1.87886 8.0899C1.92135 8.13239 1.97897 8.15626 2.03906 8.15626H26.9609C27.021 8.15626 27.0787 8.13239 27.1211 8.0899C27.1636 8.04741 27.1875 7.98978 27.1875 7.9297V7.25001ZM1.8125 23.5625C1.8125 24.5239 2.19442 25.4459 2.87424 26.1258C3.55406 26.8056 4.47609 27.1875 5.4375 27.1875H23.5625C24.5239 27.1875 25.4459 26.8056 26.1258 26.1258C26.8056 25.4459 27.1875 24.5239 27.1875 23.5625V10.1953C27.1875 10.1352 27.1636 10.0776 27.1211 10.0351C27.0787 9.99263 27.021 9.96876 26.9609 9.96876H2.03906C1.97897 9.96876 1.92135 9.99263 1.87886 10.0351C1.83637 10.0776 1.8125 10.1352 1.8125 10.1953V23.5625Z" fill="#FF4F5A"/>
</svg>
