<svg width="20" height="20" viewBox="0 0 20 20" fill="none" xmlns="http://www.w3.org/2000/svg">
<path fill-rule="evenodd" clip-rule="evenodd" d="M9.99992 18.25C14.5562 18.25 18.2499 14.5563 18.2499 10C18.2499 5.44372 14.5562 1.75001 9.99992 1.75001C5.44363 1.75001 1.74992 5.44372 1.74992 10C1.74992 14.5563 5.44363 18.25 9.99992 18.25ZM9.99992 19.1667C15.0627 19.1667 19.1666 15.0628 19.1666 10C19.1666 4.93726 15.0627 0.833344 9.99992 0.833344C4.93717 0.833344 0.833252 4.93726 0.833252 10C0.833252 15.0628 4.93717 19.1667 9.99992 19.1667Z" fill="black"/>
<path d="M4.5 15.3304C4.5 14.857 4.85383 14.4569 5.325 14.4046C8.86104 14.0132 11.155 14.0485 14.6832 14.4133C14.8594 14.4318 15.0264 14.5012 15.1638 14.6131C15.3012 14.7249 15.403 14.8743 15.4569 15.0431C15.5108 15.2119 15.5143 15.3927 15.4671 15.5634C15.4199 15.7342 15.324 15.8875 15.1911 16.0046C11.0271 19.6342 8.64746 19.5842 4.79333 16.0083C4.60542 15.8341 4.5 15.5866 4.5 15.3309V15.3304Z" fill="black"/>
<path fill-rule="evenodd" clip-rule="evenodd" d="M14.6359 14.8689C11.1356 14.5068 8.87463 14.4729 5.3748 14.8602C5.25959 14.8736 5.15339 14.9291 5.07652 15.0159C4.99964 15.1028 4.95751 15.2149 4.95817 15.3309C4.95817 15.462 5.01271 15.5862 5.10484 15.6724C7.01517 17.4443 8.46259 18.245 9.87746 18.25C11.2974 18.2551 12.8227 17.4608 14.8898 15.6595C14.9555 15.6011 15.0027 15.5248 15.0259 15.44C15.049 15.3552 15.047 15.2655 15.0201 15.1818C14.9932 15.0981 14.9426 15.024 14.8744 14.9685C14.8062 14.9131 14.7233 14.8786 14.6359 14.8694V14.8689ZM5.27442 13.949C8.84759 13.5535 11.175 13.5892 14.7308 13.9573C14.9958 13.9849 15.247 14.0893 15.4537 14.2575C15.6604 14.4258 15.8135 14.6507 15.8943 14.9046C15.9752 15.1585 15.9802 15.4305 15.9088 15.6873C15.8375 15.9441 15.6928 16.1744 15.4925 16.3502C13.3956 18.1781 11.6494 19.1736 9.87471 19.1667C8.09501 19.1603 6.42576 18.1478 4.48197 16.3443C4.34279 16.2146 4.23185 16.0577 4.15606 15.8833C4.08028 15.7088 4.04128 15.5206 4.04151 15.3304C4.04084 14.9887 4.16627 14.6588 4.39377 14.4038C4.62126 14.1488 4.93484 13.9867 5.27442 13.9486V13.949Z" fill="black"/>
<path d="M13.6666 8.16667C13.6666 9.13913 13.2803 10.0718 12.5926 10.7594C11.905 11.447 10.9724 11.8333 9.99992 11.8333C9.02746 11.8333 8.09483 11.447 7.40719 10.7594C6.71956 10.0718 6.33325 9.13913 6.33325 8.16667C6.33325 7.19421 6.71956 6.26157 7.40719 5.57394C8.09483 4.88631 9.02746 4.5 9.99992 4.5C10.9724 4.5 11.905 4.88631 12.5926 5.57394C13.2803 6.26157 13.6666 7.19421 13.6666 8.16667Z" fill="black"/>
<path fill-rule="evenodd" clip-rule="evenodd" d="M9.99992 10.9167C10.7293 10.9167 11.4287 10.6269 11.9445 10.1112C12.4602 9.59549 12.7499 8.89601 12.7499 8.16667C12.7499 7.43732 12.4602 6.73785 11.9445 6.22212C11.4287 5.7064 10.7293 5.41667 9.99992 5.41667C9.27057 5.41667 8.5711 5.7064 8.05537 6.22212C7.53965 6.73785 7.24992 7.43732 7.24992 8.16667C7.24992 8.89601 7.53965 9.59549 8.05537 10.1112C8.5711 10.6269 9.27057 10.9167 9.99992 10.9167V10.9167ZM9.99992 11.8333C10.9724 11.8333 11.905 11.447 12.5926 10.7594C13.2803 10.0718 13.6666 9.13913 13.6666 8.16667C13.6666 7.19421 13.2803 6.26157 12.5926 5.57394C11.905 4.88631 10.9724 4.5 9.99992 4.5C9.02746 4.5 8.09483 4.88631 7.40719 5.57394C6.71956 6.26157 6.33325 7.19421 6.33325 8.16667C6.33325 9.13913 6.71956 10.0718 7.40719 10.7594C8.09483 11.447 9.02746 11.8333 9.99992 11.8333V11.8333Z" fill="black"/>
</svg>
