<svg width="19" height="20" viewBox="0 0 19 20" fill="none" xmlns="http://www.w3.org/2000/svg">
<path d="M17.25 16.4167H6.25M0.75 3.58334H4.41667H0.75ZM17.25 3.58334H8.08333H17.25ZM0.75 10H11.75H0.75ZM17.25 10H15.4167H17.25ZM0.75 16.4167H2.58333H0.75Z" stroke="black" stroke-width="2" stroke-linecap="round"/>
<path d="M6.25008 5.41667C7.2626 5.41667 8.08342 4.59586 8.08342 3.58333C8.08342 2.57081 7.2626 1.75 6.25008 1.75C5.23756 1.75 4.41675 2.57081 4.41675 3.58333C4.41675 4.59586 5.23756 5.41667 6.25008 5.41667Z" stroke="black" stroke-width="2" stroke-linecap="round"/>
<path d="M13.5833 11.8333C14.5959 11.8333 15.4167 11.0125 15.4167 9.99999C15.4167 8.98747 14.5959 8.16666 13.5833 8.16666C12.5708 8.16666 11.75 8.98747 11.75 9.99999C11.75 11.0125 12.5708 11.8333 13.5833 11.8333Z" stroke="black" stroke-width="2" stroke-linecap="round"/>
<path d="M4.41659 18.25C5.42911 18.25 6.24992 17.4292 6.24992 16.4167C6.24992 15.4042 5.42911 14.5833 4.41659 14.5833C3.40406 14.5833 2.58325 15.4042 2.58325 16.4167C2.58325 17.4292 3.40406 18.25 4.41659 18.25Z" stroke="black" stroke-width="2" stroke-linecap="round"/>
</svg>
